<svg width="100" height="62" viewBox="0 0 100 62" fill="none" xmlns="http://www.w3.org/2000/svg">
<g clip-path="url(#clip0_48_55)">
<path d="M49.4355 61.1512C49.0971 61.1512 48.781 61.061 48.4875 60.903L45.4853 59.1198C45.0338 58.8713 45.2596 58.7811 45.3951 58.736C46.0045 58.5328 46.1174 58.4875 46.7494 58.1266C46.8172 58.0813 46.9076 58.1039 46.9752 58.149L49.2777 59.526C49.368 59.5711 49.4809 59.5711 49.5484 59.526L58.5553 54.3116C58.6455 54.2664 58.6908 54.176 58.6908 54.0633V43.6571C58.6908 43.544 58.6455 43.4539 58.5553 43.4086L49.5484 38.2168C49.4582 38.1715 49.3453 38.1715 49.2777 38.2168L40.2709 43.4086C40.1807 43.4537 40.1353 43.5666 40.1353 43.6569V54.0631C40.1353 54.1535 40.1807 54.2662 40.2709 54.3116L42.7314 55.7336C44.0633 56.4108 44.8984 55.6207 44.8984 54.8307V44.5598C44.8984 44.4244 45.0113 44.2889 45.1693 44.2889H46.3205C46.456 44.2889 46.5914 44.4018 46.5914 44.5598V54.8307C46.5914 56.6139 45.6207 57.6524 43.9277 57.6524C43.4086 57.6524 43.0023 57.6524 41.851 57.0879L39.4809 55.7336C38.8939 55.3951 38.5328 54.7629 38.5328 54.0858V43.6795C38.5328 43.0024 38.8939 42.3701 39.4809 42.0317L48.4875 36.8172C49.0519 36.5012 49.8195 36.5012 50.3838 36.8172L59.3904 42.0317C59.9773 42.3701 60.3387 43.0024 60.3387 43.6795V54.0858C60.3387 54.7629 59.9773 55.3951 59.3904 55.7336L50.3838 60.9481C50.0902 61.0836 49.7518 61.1512 49.4357 61.1512H49.4355ZM52.2121 53.9955C48.2619 53.9955 47.4492 52.1897 47.4492 50.6547C47.4492 50.5192 47.5621 50.3838 47.7201 50.3838H48.8939C49.0293 50.3838 49.1422 50.474 49.1422 50.6096C49.3228 51.8059 49.842 52.3928 52.2348 52.3928C54.1309 52.3928 54.9437 51.9639 54.9437 50.9481C54.9437 50.3612 54.7178 49.9324 51.7607 49.6389C49.3002 49.3905 47.7652 48.8489 47.7652 46.885C47.7652 45.0565 49.3004 43.9729 51.8736 43.9729C54.7629 43.9729 56.1851 44.9662 56.3658 47.133C56.3658 47.201 56.3432 47.2686 56.298 47.3364C56.2527 47.3815 56.1852 47.4266 56.1174 47.4266H54.9436C54.8307 47.4266 54.7178 47.3364 54.6953 47.2235C54.4244 45.9821 53.7246 45.5756 51.8736 45.5756C49.7969 45.5756 49.5484 46.2981 49.5484 46.8397C49.5484 47.4944 49.842 47.6975 52.641 48.0586C55.4176 48.4199 56.7269 48.9391 56.7269 50.8803C56.7043 52.8668 55.0791 53.9955 52.2121 53.9955Z" fill="#539E43"/>
<path d="M21.4898 20.4516C21.4898 20.0454 21.2641 19.6614 20.9029 19.4583L11.3318 13.9504C11.1736 13.86 10.9932 13.8149 10.8127 13.7922H10.7223C10.5418 13.7922 10.3611 13.86 10.2031 13.9504L0.632034 19.4583C0.270706 19.6614 0.0451202 20.0452 0.0451202 20.4516L0.0677765 35.2596C0.0677765 35.4627 0.180667 35.6659 0.361136 35.7563C0.5418 35.8692 0.767386 35.8692 0.925589 35.7563L6.61407 32.5057C6.9752 32.3026 7.20098 31.9188 7.20098 31.5125V24.5825C7.20098 24.1762 7.42657 23.7924 7.78789 23.5893L10.2031 22.1897C10.3838 22.0768 10.5869 22.0315 10.79 22.0315C10.9932 22.0315 11.1963 22.0768 11.3545 22.1897L13.7697 23.5893C14.1311 23.7924 14.3566 24.176 14.3566 24.5825V31.5125C14.3566 31.9188 14.5824 32.3026 14.9436 32.5057L20.632 35.7563C20.7199 35.8116 20.8216 35.841 20.9255 35.841C21.0293 35.841 21.1311 35.8116 21.2189 35.7563C21.3996 35.6659 21.5125 35.4627 21.5125 35.2596L21.4898 20.4516ZM67.4943 0.0678223C67.3139 -0.0226074 67.0881 -0.0226074 66.9299 0.0678223C66.7494 0.180713 66.6365 0.361182 66.6365 0.564307V15.2372C66.6365 15.3725 66.569 15.5079 66.4334 15.5983C66.2981 15.6659 66.1625 15.6659 66.0272 15.5983L63.6344 14.2213C63.459 14.1215 63.2606 14.0689 63.0587 14.0689C62.8568 14.0689 62.6584 14.1215 62.483 14.2213L52.9119 19.7518C52.5508 19.9549 52.325 20.3387 52.325 20.745V31.7833C52.325 32.1895 52.5508 32.5735 52.9119 32.7766L62.483 38.3071C62.6584 38.407 62.8568 38.4595 63.0587 38.4595C63.2606 38.4595 63.459 38.407 63.6344 38.3071L73.2055 32.7766C73.5666 32.5735 73.7924 32.1897 73.7924 31.7833V4.26646C73.7924 3.83755 73.5666 3.45395 73.2055 3.25063L67.4945 0.0678223H67.4943ZM66.6141 28.1491C66.6141 28.262 66.5689 28.3522 66.4785 28.3973L63.2055 30.2934C63.1598 30.3157 63.1096 30.3273 63.0587 30.3273C63.0078 30.3273 62.9576 30.3157 62.9119 30.2934L59.6389 28.3973C59.5484 28.3522 59.5033 28.2393 59.5033 28.1491V24.3567C59.5033 24.2438 59.5484 24.1536 59.6389 24.1084L62.9119 22.2122C62.9576 22.1899 63.0078 22.1783 63.0587 22.1783C63.1096 22.1783 63.1598 22.1899 63.2055 22.2122L66.4785 24.1084C66.5689 24.1534 66.6141 24.2665 66.6141 24.3567V28.1491ZM99.3453 24.2665C99.7066 24.0633 99.9098 23.6795 99.9098 23.2731V20.587C99.9098 20.1807 99.684 19.7969 99.3453 19.5938L89.842 14.086C89.6666 13.9861 89.4682 13.9336 89.2663 13.9336C89.0644 13.9336 88.8661 13.9861 88.6906 14.086L79.1195 19.6163C78.7582 19.8194 78.5326 20.2032 78.5326 20.6094V31.6479C78.5326 32.0541 78.7584 32.4379 79.1195 32.6411L88.6229 38.0586C88.9842 38.2618 89.4131 38.2618 89.7518 38.0586L95.5078 34.8536C95.6885 34.7631 95.8014 34.56 95.8014 34.3569C95.8014 34.1538 95.6885 33.9506 95.5078 33.8602L85.8916 28.3297C85.7109 28.2168 85.5981 28.0364 85.5981 27.8333V24.3795C85.5981 24.1764 85.7109 23.9733 85.8916 23.8829L88.8938 22.1672C88.9816 22.1119 89.0834 22.0826 89.1872 22.0826C89.2911 22.0826 89.3928 22.1119 89.4807 22.1672L92.483 23.8829C92.6637 23.9958 92.7764 24.1762 92.7764 24.3795V27.0883C92.7764 27.2915 92.8893 27.4946 93.0699 27.5848C93.1578 27.6401 93.2595 27.6695 93.3634 27.6695C93.4672 27.6695 93.569 27.6401 93.6568 27.5848L99.3453 24.2665Z" fill="#333333"/>
<path d="M89.1195 23.7471C89.153 23.725 89.1923 23.7133 89.2324 23.7133C89.2725 23.7133 89.3118 23.725 89.3453 23.7471L91.1738 24.8081C91.2414 24.8534 91.2865 24.921 91.2865 25.0112V27.1333C91.2865 27.2235 91.2416 27.2913 91.1738 27.3364L89.3453 28.3973C89.3118 28.4194 89.2725 28.4312 89.2324 28.4312C89.1923 28.4312 89.153 28.4194 89.1195 28.3973L87.2912 27.3364C87.2234 27.2913 87.1783 27.2235 87.1783 27.1333V25.0114C87.1783 24.921 87.2232 24.8532 87.2912 24.8083L89.1195 23.7471Z" fill="#539E43"/>
<path d="M37.4943 14.1311C37.3189 14.0313 37.1206 13.9788 36.9187 13.9788C36.7169 13.9788 36.5186 14.0313 36.3432 14.1311L26.8398 19.6161C26.4785 19.8192 26.2754 20.203 26.2754 20.6092V31.6026C26.2754 32.0088 26.5012 32.3926 26.8398 32.5958L36.3432 38.0811C36.5186 38.181 36.7169 38.2335 36.9187 38.2335C37.1206 38.2335 37.3189 38.181 37.4943 38.0811L46.9979 32.5958C47.359 32.3926 47.5623 32.0088 47.5623 31.6026V20.6094C47.5623 20.2032 47.3363 19.8194 46.9979 19.6163L37.4943 14.1311Z" fill="url(#paint0_linear_48_55)"/>
</g>
<defs>
<linearGradient id="paint0_linear_48_55" x1="40.7905" y1="18.2202" x2="30.3739" y2="34.5877" gradientUnits="userSpaceOnUse">
<stop stop-color="#41873F"/>
<stop offset="0.3288" stop-color="#418B3D"/>
<stop offset="0.6352" stop-color="#419637"/>
<stop offset="0.9319" stop-color="#3FA92D"/>
<stop offset="1" stop-color="#3FAE2A"/>
</linearGradient>
<clipPath id="clip0_48_55">
<rect width="100" height="61.3281" fill="white"/>
</clipPath>
</defs>
</svg>
